<?xml version="1.0" encoding="UTF-8" standalone="no"?>
<!-- Created with Inkscape (http://www.inkscape.org/) -->

<svg
   width="98.356262mm"
   height="98.356262mm"
   viewBox="0 0 98.356262 98.356262"
   version="1.1"
   id="svg5"
   xml:space="preserve"
   inkscape:version="1.2.1 (9c6d41e410, 2022-07-14)"
   sodipodi:docname="Logo.svg"
   xmlns:inkscape="http://www.inkscape.org/namespaces/inkscape"
   xmlns:sodipodi="http://sodipodi.sourceforge.net/DTD/sodipodi-0.dtd"
   xmlns:xlink="http://www.w3.org/1999/xlink"
   xmlns="http://www.w3.org/2000/svg"
   xmlns:svg="http://www.w3.org/2000/svg"><sodipodi:namedview
     id="namedview7"
     pagecolor="#ffffff"
     bordercolor="#666666"
     borderopacity="1.0"
     inkscape:showpageshadow="2"
     inkscape:pageopacity="0.0"
     inkscape:pagecheckerboard="0"
     inkscape:deskcolor="#d1d1d1"
     inkscape:document-units="mm"
     showgrid="false"
     showguides="true"
     inkscape:zoom="0.52724989"
     inkscape:cx="184.9218"
     inkscape:cy="521.57432"
     inkscape:window-width="1920"
     inkscape:window-height="1017"
     inkscape:window-x="-8"
     inkscape:window-y="-8"
     inkscape:window-maximized="1"
     inkscape:current-layer="layer1" /><defs
     id="defs2"><linearGradient
       inkscape:collect="always"
       id="linearGradient10532"><stop
         style="stop-color:#303030;stop-opacity:1;"
         offset="0"
         id="stop10528" /><stop
         style="stop-color:#b3b2b3;stop-opacity:1;"
         offset="1"
         id="stop10530" /></linearGradient><linearGradient
       inkscape:collect="always"
       id="linearGradient996"><stop
         style="stop-color:#303130;stop-opacity:1;"
         offset="0"
         id="stop992" /><stop
         style="stop-color:#0d0e0d;stop-opacity:1;"
         offset="1"
         id="stop994" /></linearGradient><linearGradient
       inkscape:collect="always"
       xlink:href="#linearGradient996"
       id="linearGradient998"
       x1="28.854519"
       y1="131.97806"
       x2="120.43626"
       y2="224.56342"
       gradientUnits="userSpaceOnUse"
       gradientTransform="translate(32.743608,-92.083548)" /><linearGradient
       inkscape:collect="always"
       xlink:href="#linearGradient10532"
       id="linearGradient10534"
       x1="124.66001"
       y1="52.452362"
       x2="140.92339"
       y2="52.452362"
       gradientUnits="userSpaceOnUse" /></defs><g
     inkscape:label="Capa 1"
     inkscape:groupmode="layer"
     id="layer1"
     transform="translate(-57.583589,-35.879973)"><rect
       style="fill:url(#linearGradient998);fill-opacity:1;stroke-width:0.66"
       id="rect366"
       width="98.35627"
       height="98.35627"
       x="57.583588"
       y="35.879971" /><g
       id="g13659"
       transform="translate(-13.107312,29.28026)"><path
         style="fill:#eff0f1;fill-opacity:1;stroke:none;stroke-width:0.264583px;stroke-linecap:butt;stroke-linejoin:miter;stroke-opacity:1"
         d="m 111.88535,29.927558 0.005,34.164867 c 0.0609,5.049312 -2.21038,6.863973 -6.96909,6.929888 H 91.126915 c 4.35432,-4.829996 4.00334,-6.770053 7.77432,-6.671599 1.459655,0.03811 2.854695,-0.03136 2.854695,-0.03136 1.39646,-0.0088 3.21727,-1.004723 3.20968,-3.365588 l -0.008,-21.391758 c 0.0605,-4.2239 3.13667,-7.29584 6.92774,-9.63445 z"
         id="path8073"
         sodipodi:nodetypes="ccccscccc" /><g
         id="g13652"><path
           style="fill:#ebecee;fill-opacity:1;stroke:none;stroke-width:0.568792px;stroke-linecap:butt;stroke-linejoin:miter;stroke-opacity:1"
           d="m 123.17269,59.612941 -0.0444,13.153951 c -0.0868,4.077926 -4.10683,6.292388 -7.10044,8.861246 l 0.0311,-13.340363 c 0.002,-3.193957 4.77966,-6.283602 7.11371,-8.674834 z"
           id="path5809-6"
           sodipodi:nodetypes="ccccc" /><path
           style="fill:url(#linearGradient10534);fill-opacity:1;stroke:none;stroke-width:0.436596px;stroke-linecap:butt;stroke-linejoin:miter;stroke-opacity:1"
           d="m 140.34677,49.20535 -8.74308,0.113705 c -2.73326,0.237042 -3.84586,2.157187 -6.234,6.315293 l 8.44041,0.06348 c 3.30103,0.09589 5.41424,-4.292885 7.11328,-6.270715 z"
           id="path5809-6-2"
           sodipodi:nodetypes="cccccc" /><path
           style="fill:#ebecee;fill-opacity:1;stroke:none;stroke-width:0.264583px;stroke-linecap:butt;stroke-linejoin:miter;stroke-opacity:1"
           d="M 116.14341,60.155375 V 41.437628 c 0,-4.44829 3.52252,-7.04811 7.05242,-7.05241 h 25.41532 l -2.8387,4.03629 c -0.98693,1.44047 -3.5721,2.98789 -5.17519,2.98789 h -12.92159 c -3.22162,0 -4.58266,2.43929 -4.58266,4.58267 v 5.824598 c 0,3.454215 -3.36701,5.442319 -6.9496,8.338709 z"
           id="path8144"
           sodipodi:nodetypes="cccccccccc" /></g></g></g></svg>
