<?xml version="1.0" encoding="UTF-8" standalone="no"?>
<!-- Created with Inkscape (http://www.inkscape.org/) -->

<svg
   width="238.36745mm"
   height="288.55228mm"
   viewBox="0 0 238.36745 288.55228"
   version="1.1"
   id="svg5"
   xml:space="preserve"
   inkscape:version="1.2.1 (9c6d41e410, 2022-07-14)"
   sodipodi:docname="adorno.svg"
   xmlns:inkscape="http://www.inkscape.org/namespaces/inkscape"
   xmlns:sodipodi="http://sodipodi.sourceforge.net/DTD/sodipodi-0.dtd"
   xmlns:xlink="http://www.w3.org/1999/xlink"
   xmlns="http://www.w3.org/2000/svg"
   xmlns:svg="http://www.w3.org/2000/svg"><sodipodi:namedview
     id="namedview7"
     pagecolor="#ffffff"
     bordercolor="#666666"
     borderopacity="1.0"
     inkscape:showpageshadow="2"
     inkscape:pageopacity="0.0"
     inkscape:pagecheckerboard="0"
     inkscape:deskcolor="#d1d1d1"
     inkscape:document-units="mm"
     showgrid="false"
     inkscape:zoom="0.37282197"
     inkscape:cx="229.33198"
     inkscape:cy="818.08484"
     inkscape:window-width="1920"
     inkscape:window-height="1017"
     inkscape:window-x="-8"
     inkscape:window-y="-8"
     inkscape:window-maximized="1"
     inkscape:current-layer="layer1" /><defs
     id="defs2"><linearGradient
       inkscape:collect="always"
       id="linearGradient5876"><stop
         style="stop-color:#782b91;stop-opacity:1;"
         offset="0"
         id="stop5872" /><stop
         style="stop-color:#9755a1;stop-opacity:1;"
         offset="1"
         id="stop5874" /></linearGradient><linearGradient
       inkscape:collect="always"
       xlink:href="#linearGradient5876"
       id="linearGradient5878"
       x1="-263.1322"
       y1="129.81212"
       x2="-34.440941"
       y2="305.8121"
       gradientUnits="userSpaceOnUse" /></defs><g
     inkscape:label="Capa 1"
     inkscape:groupmode="layer"
     id="layer1"
     transform="translate(273.75952,20.048387)"><g
       id="g7953"
       transform="matrix(-1,0,0,1,-309.15159,0)"><path
         id="path2806"
         style="fill:url(#linearGradient5878);fill-opacity:1;stroke:none;stroke-width:0.264583px;stroke-linecap:butt;stroke-linejoin:miter;stroke-opacity:1"
         d="m -238.61438,100.36338 c 0.53153,6.71402 1.85843,13.08755 7.02542,17.81494 -15.07859,-7.20719 -28.2415,-5.65668 -38.64002,8.53074 27.0355,30.13626 56.09061,30.55456 66.74166,39.64358 15.30266,14.79901 17.59939,20.5307 14.80375,23.08334 -2.19132,2.2165 -4.04933,-4.67945 -5.77071,-7.77782 -16.66232,-22.33146 -31.48276,-19.06051 -38.89117,-17.06201 3.23815,5.83055 4.96446,12.26582 14.55312,15.55616 -4.08276,0.93541 -12.08097,2.72303 -10.28723,4.76767 5.00094,6.94926 22.91074,9.21888 34.37413,13.79967 9.28144,4.33029 15.8367,10.05131 22.62136,17.01344 28.43536,29.17914 63.94628,45.0037 96.16519,49.56648 -30.54456,-4.69374 -93.77464,-35.34048 -119.7901,-123.28498 -9.54509,-23.82945 -24.40868,-35.8773 -42.9054,-41.65121 z m 162.6955,164.93619 c 1.091451,0.16772 2.150595,0.31004 3.155363,0.41289 -1.048023,-0.12537 -2.099911,-0.26342 -3.155363,-0.41289 z M -257.52072,124.6234 c 28.09899,-0.30195 51.72881,20.92193 62.15177,36.84995 -16.33275,-18.2228 -37.92999,-34.83242 -66.32877,-36.64634 1.4025,-0.12217 2.79509,-0.18876 4.177,-0.20361 z" /><path
         style="fill:#843b97;fill-opacity:1;stroke:none;stroke-width:0.264583px;stroke-linecap:butt;stroke-linejoin:miter;stroke-opacity:1"
         d="m -35.838709,267.28227 c 1.179018,-1.24058 -0.130307,-2.64632 -2.129033,-2.92743 -56.311892,-2.92961 -64.515558,-32.94872 -59.790322,-38.14517 3.391986,-3.73024 8.516743,-0.72066 10.733871,2.66129 -1.078185,-17.62608 -21.643887,-12.78721 -20.491937,3.6371 -27.63736,-22.67763 -3.7519,-48.17552 -5.39285,-55.36641 -1.09109,-4.68054 -14.91867,1.03714 -18.56726,9.53454 -2.23727,-14.48999 11.83452,-30.87884 28.10179,-35.37815 11.550424,-3.19469 36.047141,5.37469 29.356337,23.58543 -2.554623,6.41759 -7.809387,7.90077 -11.296914,5.88667 -3.220675,-1.85999 -4.751425,-6.9963 -5.513978,-7.14121 -1.374543,0.0977 -3.248147,6.64684 0.501817,9.53453 14.695023,8.34181 21.255402,-8.63443 20.323617,-15.55634 -2.985586,-13.85723 -12.571349,-17.15417 -22.079979,-20.57453 3.578469,-1.75813 7.675728,-12.47719 5.95131,-13.53133 -1.856411,-1.13484 -3.370727,5.52955 -28.79658,16.53989 -23.9518,10.37202 -24.25252,35.01969 -24.31937,37.38198 -0.85702,30.28543 41.611432,80.17796 103.409481,79.85914 z"
         id="path2809"
         sodipodi:nodetypes="ccsccccscsccccsssc" /><path
         style="fill:#782b91;fill-opacity:1;stroke:none;stroke-width:0.264583px;stroke-linecap:butt;stroke-linejoin:miter;stroke-opacity:1"
         d="m -35.566331,266.12022 -0.846817,2.38363 c -54.30322,0.0389 -138.795722,-23.19743 -158.393302,-148.92321 l -3.37097,-23.41935 c -24.03234,-30.769052 -51.22376,-28.033958 -64.40322,4.43548 -11.6965,-12.174322 -1.34414,-52.283087 44.17742,-31.225804 -12.69857,-9.327205 -16.6048,-18.309612 -12.24194,-26.967741 2.48469,2.423373 5.04504,4.720637 8.51613,5.5 10.80507,3.756239 13.25242,13.855964 14.72581,16.854839 l 7.62903,21.112903 c -3.84451,-37.959624 -13.72624,-74.668101 -47.01613,-89.2419346 -11.86308,-4.6782204 -23.8708,0.059813 -23.95161,11.8870964 0.60794,7.4104662 3.98968,11.0109092 8.41672,10.9292962 3.76718,-0.06945 9.5943,-3.723977 11.27683,2.199736 1.81191,9.005269 -21.47002,8.765378 -22.70967,-14.3709675 -0.11195,-3.9036585 6.15812,-19.5019055 26.25805,-14.1935482 -2.86519,-6.5695893 -2.30004,-10.5664313 0.17742,-13.1290323 3.45503,0.964832 5.24368,8.595179 7.80645,13.1290323 46.4045,33.2992097 45.55086,80.9851597 50.56452,124.9032247 -0.18577,-33.061425 16.59372,-84.084992 68.12903,-89.064515 24.475734,0.371475 39.016995,20.103487 29.629033,37.612901 -8.992013,10.391646 -25.926543,11.139706 -25.903223,-6.032256 0.007,-4.792221 2.86735,-7.9938 6.91935,-8.693549 2.40908,-0.12575 4.42657,0.970187 3.86244,2.768625 -0.35591,1.134646 -2.00372,2.209084 -4.3947,4.505569 -4.26895,5.220981 -0.19293,9.856266 2.30646,10.467742 10.46271,3.202971 21.676004,-7.405917 13.797724,-23.749033 -2.704457,-5.610267 -8.666714,-10.554255 -19.297724,-12.621935 -21.95251,-3.506457 -48.70693,18.515188 -58.09403,36.921419 -10.09084,19.786122 -10.8405,43.512732 -9.30667,61.158892 1.84799,21.26046 7.89075,40.39684 16.48134,56.45195 -9.83547,-25.22163 -25.22046,-85.21042 20.75807,-92.967745 9.99111,-1.685664 16.53598,16.199375 4.25806,19.693545 -22.23377,6.32751 -28.96634,28.78672 -29.09677,41.69355 7.12513,-17.75019 11.66213,-20.59248 16.67742,-19.69355 12.40052,2.22265 10.26464,10.90202 3.54838,16.5 -11.03612,9.19856 -15.1528,19.91964 -13.30645,33.17742 1.92196,12.75658 9.92309,25.04486 21.50721,36.00381 26.2528,24.836 46.569666,40.33545 104.910329,44.00351 z"
         id="path2811"
         sodipodi:nodetypes="ccccccccccccsccccccccscsccscsscsscsscsc" /></g></g></svg>
