<?xml version="1.0" encoding="UTF-8" standalone="no"?>
<svg
   version="1.0"
   width="360pt"
   height="253.5pt"
   viewBox="0 0 360 253.5"
   preserveAspectRatio="xMidYMid"
   id="svg64"
   sodipodi:docname="Escarmiento-v2.svg"
   xml:space="preserve"
   inkscape:version="1.2.1 (9c6d41e410, 2022-07-14)"
   xmlns:inkscape="http://www.inkscape.org/namespaces/inkscape"
   xmlns:sodipodi="http://sodipodi.sourceforge.net/DTD/sodipodi-0.dtd"
   xmlns:xlink="http://www.w3.org/1999/xlink"
   xmlns="http://www.w3.org/2000/svg"
   xmlns:svg="http://www.w3.org/2000/svg"><defs
     id="defs68"><linearGradient
       inkscape:collect="always"
       id="linearGradient6489"><stop
         style="stop-color:#101935;stop-opacity:1;"
         offset="0"
         id="stop6485" /><stop
         style="stop-color:#f2fdff;stop-opacity:0;"
         offset="1"
         id="stop6487" /></linearGradient><linearGradient
       inkscape:collect="always"
       xlink:href="#linearGradient6489"
       id="linearGradient6491"
       x1="179.36636"
       y1="122.35889"
       x2="179.31924"
       y2="23.717499"
       gradientUnits="userSpaceOnUse" /><linearGradient
       inkscape:collect="always"
       xlink:href="#linearGradient6489"
       id="linearGradient9595"
       gradientUnits="userSpaceOnUse"
       x1="179.36636"
       y1="122.35889"
       x2="179.31924"
       y2="23.717499" /><linearGradient
       inkscape:collect="always"
       xlink:href="#linearGradient6489"
       id="linearGradient9597"
       gradientUnits="userSpaceOnUse"
       x1="179.36636"
       y1="122.35889"
       x2="179.31924"
       y2="23.717499" /><linearGradient
       inkscape:collect="always"
       xlink:href="#linearGradient6489"
       id="linearGradient9599"
       gradientUnits="userSpaceOnUse"
       x1="179.36636"
       y1="122.35889"
       x2="179.31924"
       y2="23.717499" /><linearGradient
       inkscape:collect="always"
       xlink:href="#linearGradient6489"
       id="linearGradient9601"
       gradientUnits="userSpaceOnUse"
       x1="179.36636"
       y1="122.35889"
       x2="179.31924"
       y2="23.717499" /><linearGradient
       inkscape:collect="always"
       xlink:href="#linearGradient6489"
       id="linearGradient9603"
       gradientUnits="userSpaceOnUse"
       x1="179.36636"
       y1="122.35889"
       x2="179.31924"
       y2="23.717499" /><linearGradient
       inkscape:collect="always"
       xlink:href="#linearGradient6489"
       id="linearGradient9605"
       gradientUnits="userSpaceOnUse"
       x1="179.36636"
       y1="122.35889"
       x2="179.31924"
       y2="23.717499" /></defs><sodipodi:namedview
     id="namedview66"
     pagecolor="#ffffff"
     bordercolor="#666666"
     borderopacity="1.0"
     inkscape:showpageshadow="2"
     inkscape:pageopacity="0.0"
     inkscape:pagecheckerboard="0"
     inkscape:deskcolor="#d1d1d1"
     inkscape:document-units="pt"
     showgrid="false"
     showguides="true"
     inkscape:zoom="1"
     inkscape:cx="104"
     inkscape:cy="281"
     inkscape:window-width="1920"
     inkscape:window-height="1017"
     inkscape:window-x="-8"
     inkscape:window-y="-8"
     inkscape:window-maximized="1"
     inkscape:current-layer="svg64" /><path
     id="path2000-5-2"
     style="fill:#564787;fill-opacity:1;stroke:none;stroke-width:1.07039px;stroke-linecap:butt;stroke-linejoin:miter;stroke-opacity:1"
     d="m 179.82737,40.486385 c -12.97178,0 -19.93517,11.63885 -18.87451,21.70312 1.55616,9.48507 8.21975,16.74916 14.17529,20.15625 -18.99215,12.93427 -39.07349,28.280695 -41.18408,54.984375 1.15269,23.24467 14.79585,27.34131 22.34765,27.34131 7.3816,0 21.03425,-7.58829 18.92286,-29.18115 l -19.98194,-0.88623 -0.009,-6.22266 20.41846,-0.92871 c 0.42285,-7.15943 0.0479,-14.31808 -0.39844,-21.47754 h 4.74024 0.0322 4.60766 c -0.44635,7.15946 -0.68871,14.31811 -0.26586,21.47754 l 20.41846,0.92871 -0.009,6.22266 -19.98194,0.88623 c -2.11137,21.59286 11.54126,29.18115 18.92286,29.18115 7.5518,0 21.19496,-4.09664 22.34765,-27.34131 -2.11978,-26.81988 -22.3682,-42.184685 -41.4331,-55.154295 h -0.15967 c 0.0438,-0.0274 0.081,-0.0547 0.12451,-0.082 -16.60048,-11.44811 -17.18845,-15.59539 -17.49756,-20.59424 -0.15073,-5.5883 3.60583,-14.86722 12.72656,-14.84912 7.7838,0 12.58622,5.91672 13.01221,11.80225 0.55161,7.62098 -2.68032,11.83488 -10.43115,18.3662 l 4.6626,3.60645 c 9.40913,-6.74357 10.99477,-13.31757 11.60302,-18.45556 1.1607,-10.87716 -6.76898,-21.53521 -18.83642,-21.4834 z m 0.10547,46.27587 c 0.0107,3e-5 14.94603,10.66385 20.14306,15.593265 5.19845,4.93075 20.39394,19.62509 19.24073,37.89698 -1.29644,20.5411 -27.01671,26.34312 -28.81348,0.97705 l 19.9248,-0.97705 v -18.167 l -20.02148,-0.68408 c -0.62915,-6.46819 0.74101,-14.06798 0.58594,-21.2915 l -11.05078,-1.444345 -11.41114,1.441415 c 0.0793,7.17665 1.21509,14.82476 0.58594,21.29297 l -20.02148,0.68261 v 18.167 l 19.92334,0.97705 c -1.79677,25.36607 -27.51558,19.56404 -28.81202,-0.97705 -1.1532,-18.2719 14.04227,-32.96477 19.24073,-37.89551 5.19668,-4.929085 20.47514,-15.591835 20.48584,-15.591805 z"
     sodipodi:nodetypes="ccccsccccccccccccsccccccscccccssscccccccccccsss" /><text
     xml:space="preserve"
     style="font-style:normal;font-weight:normal;font-size:52.2463px;line-height:1.25;font-family:sans-serif;fill:#000000;fill-opacity:1;stroke:none;stroke-width:1.30615"
     x="32.690102"
     y="212.43382"
     id="text2207"><tspan
       sodipodi:role="line"
       id="tspan2205"
       style="font-style:normal;font-variant:normal;font-weight:normal;font-stretch:normal;font-size:52.2463px;font-family:'Bodoni MT';-inkscape-font-specification:'Bodoni MT, Normal';font-variant-ligatures:normal;font-variant-caps:normal;font-variant-numeric:normal;font-variant-east-asian:normal;stroke-width:1.30615"
       x="32.690102"
       y="212.43382">E<tspan
   style="font-style:normal;font-variant:normal;font-weight:normal;font-stretch:normal;font-size:38.3139px;font-family:'Bodoni MT';-inkscape-font-specification:'Bodoni MT, Normal';font-variant-ligatures:normal;font-variant-caps:normal;font-variant-numeric:normal;font-variant-east-asian:normal;stroke-width:1.30615"
   id="tspan2261">SCARMIENTO</tspan></tspan></text><rect
     style="fill:#4f1397;fill-opacity:0;stroke:none;stroke-width:2.1476;stroke-opacity:1"
     id="rect2315"
     width="360"
     height="253.5"
     x="0"
     y="0" /><g
     id="g6460"
     style="fill:url(#linearGradient6491);fill-opacity:1"
     transform="translate(-0.80121862)"><path
       style="fill:url(#linearGradient9595);fill-opacity:1;stroke:none;stroke-width:0.446663px;stroke-linecap:butt;stroke-linejoin:miter;stroke-opacity:1"
       d="M 82.050801,104.15077 H 131.4795 c 12.32625,-1.02647 19.06358,-11.465646 20.76637,-16.581514 -5.11365,2.69187 -8.35768,6.435399 -16.50256,7.422202 H 105.107 C 92.734145,95.57748 86.477642,99.382637 82.050801,104.15077 Z"
       id="path3426"
       sodipodi:nodetypes="cccccc" /><path
       style="fill:url(#linearGradient9597);fill-opacity:1;stroke:none;stroke-width:0.323299px;stroke-linecap:butt;stroke-linejoin:miter;stroke-opacity:1"
       d="m 104.11662,88.895219 h 35.77697 c 8.92185,-0.742973 15.02672,-9.080602 15.75672,-13.118511 -3.42214,2.674224 -8.45018,5.327997 -14.34552,6.042252 l -20.61154,0.111666 c -8.00643,0.312503 -13.37244,3.513372 -16.57663,6.964593 z"
       id="path3426-8"
       sodipodi:nodetypes="cccccc" /><path
       style="fill:url(#linearGradient9599);fill-opacity:1;stroke:none;stroke-width:0.239112px;stroke-linecap:butt;stroke-linejoin:miter;stroke-opacity:1"
       d="m 119.41287,75.935666 h 26.46066 c 7.49194,-0.326171 12.21529,-7.366227 12.68018,-10.439898 -2.73749,1.441035 -6.20493,3.891725 -10.56513,4.419991 h -16.40053 c -6.45606,0.927873 -9.80536,3.467384 -12.17518,6.019907 z"
       id="path3426-6"
       sodipodi:nodetypes="cccccc" /><path
       style="fill:url(#linearGradient9601);fill-opacity:1;stroke:none;stroke-width:0.446663px;stroke-linecap:butt;stroke-linejoin:miter;stroke-opacity:1"
       d="m 279.55164,101.79383 h -49.4287 c -12.32625,-1.02647 -19.06357,-11.465646 -20.76637,-16.581514 5.11365,2.69187 8.35768,6.435399 16.50256,7.422202 h 30.63631 c 12.37286,0.586022 18.62936,4.391179 23.0562,9.159312 z"
       id="path3426-2"
       sodipodi:nodetypes="cccccc" /><path
       style="fill:url(#linearGradient9603);fill-opacity:1;stroke:none;stroke-width:0.323299px;stroke-linecap:butt;stroke-linejoin:miter;stroke-opacity:1"
       d="m 257.48583,86.538279 h -35.77697 c -8.92186,-0.742973 -15.02673,-9.080602 -15.75673,-13.118511 3.42214,2.674224 8.45018,5.327997 14.34552,6.042252 l 20.61154,0.111666 c 8.00644,0.312503 13.37245,3.513372 16.57664,6.964593 z"
       id="path3426-8-5"
       sodipodi:nodetypes="cccccc" /><path
       style="fill:url(#linearGradient9605);fill-opacity:1;stroke:none;stroke-width:0.239112px;stroke-linecap:butt;stroke-linejoin:miter;stroke-opacity:1"
       d="m 242.18957,73.578726 h -26.46066 c -7.49194,-0.326171 -12.21529,-7.366227 -12.68018,-10.439898 2.73749,1.441035 6.20493,3.891725 10.56513,4.419991 h 16.40054 c 6.45606,0.927873 9.80535,3.467384 12.17517,6.019907 z"
       id="path3426-6-8"
       sodipodi:nodetypes="cccccc" /></g></svg>
