<?xml version="1.0" encoding="UTF-8" standalone="no"?>
<svg
   id="ae7ad495-543d-4c4b-9483-8059c5566fe6"
   data-name="Layer 1"
   width="247.72247"
   height="533.15961"
   viewBox="0 0 247.72248 533.1596"
   version="1.1"
   sodipodi:docname="Profile.svg"
   inkscape:version="1.2.1 (9c6d41e410, 2022-07-14)"
   xml:space="preserve"
   xmlns:inkscape="http://www.inkscape.org/namespaces/inkscape"
   xmlns:sodipodi="http://sodipodi.sourceforge.net/DTD/sodipodi-0.dtd"
   xmlns="http://www.w3.org/2000/svg"
   xmlns:svg="http://www.w3.org/2000/svg"
   xmlns:rdf="http://www.w3.org/1999/02/22-rdf-syntax-ns#"
   xmlns:cc="http://creativecommons.org/ns#"
   xmlns:dc="http://purl.org/dc/elements/1.1/"><sodipodi:namedview
     id="namedview256"
     pagecolor="#ffffff"
     bordercolor="#666666"
     borderopacity="1.0"
     inkscape:showpageshadow="2"
     inkscape:pageopacity="0.0"
     inkscape:pagecheckerboard="0"
     inkscape:deskcolor="#d1d1d1"
     showgrid="false"
     inkscape:zoom="0.35244174"
     inkscape:cx="-693.73168"
     inkscape:cy="90.795148"
     inkscape:window-width="1920"
     inkscape:window-height="1017"
     inkscape:window-x="-8"
     inkscape:window-y="-8"
     inkscape:window-maximized="1"
     inkscape:current-layer="ae7ad495-543d-4c4b-9483-8059c5566fe6" /><defs
     id="defs9"><linearGradient
       id="f9d7795c-47ab-4264-adf8-fc9a284cd87a"
       x1="491.14001"
       y1="640.96002"
       x2="698.09003"
       y2="640.96002"
       gradientUnits="userSpaceOnUse"><stop
         offset="0"
         stop-color="gray"
         stop-opacity="0.25"
         id="stop2" /><stop
         offset="0.54"
         stop-color="gray"
         stop-opacity="0.12"
         id="stop4" /><stop
         offset="1"
         stop-color="gray"
         stop-opacity="0.1"
         id="stop6" /></linearGradient><clipPath
       clipPathUnits="userSpaceOnUse"
       id="clipPath4404"><path
         style="fill:#50d047;fill-opacity:0.284768;stroke:none;stroke-width:1px;stroke-linecap:butt;stroke-linejoin:miter;stroke-opacity:1"
         d="m -374.52999,31.127407 c -5.00028,2.20939 -5.86655,6.78107 -4.25602,12.76807 3.97613,106.372933 0.0555,220.946353 -30.50149,363.180593 -14.58269,3.30326 -33.30867,49.42059 -51.78161,92.92316 30.74818,1.48046 58.97246,7.19375 77.31774,39.72288 12.01001,21.14805 67.33099,32.52517 89.37648,14.89607 17.17489,-15.86308 15.53864,-46.77508 20.57077,-72.35238 3.46082,-13.66776 4.53811,11.04968 16.31476,23.40812 9.06365,10.96368 26.59358,-17.28645 37.59486,-30.50149 -5.60737,-28.14142 -20.43942,-51.36301 -46.10691,-68.8057 C -288.152,276.61175 -354.50816,39.349537 -374.52999,31.127407 Z"
         id="path4406"
         sodipodi:nodetypes="ccccccccccc" /></clipPath><clipPath
       clipPathUnits="userSpaceOnUse"
       id="clipPath5650"><path
         style="fill:#50d047;fill-opacity:0.284768;stroke:none;stroke-width:1px;stroke-linecap:butt;stroke-linejoin:miter;stroke-opacity:1"
         d="m -374.52998,31.83674 c -5.00028,2.20939 -5.86655,6.78107 -4.25602,12.76807 3.97613,106.37293 0.0555,220.94635 -30.50149,363.18059 -14.58269,3.30326 -33.30867,49.42059 -51.78161,92.92316 30.74818,1.48046 58.97246,7.19375 77.31774,39.72288 12.01001,21.14805 67.33099,32.52517 89.37648,14.89607 17.17489,-15.86308 15.53864,-46.77508 20.57077,-72.35238 3.46082,-13.66776 4.53811,11.04968 16.31476,23.40812 9.06365,10.96368 26.59358,-17.28645 37.59486,-30.50149 -5.60737,-28.14142 -20.43942,-51.36301 -46.10691,-68.8057 C -288.15199,277.32108 -354.50815,40.05887 -374.52998,31.83674 Z"
         id="path5652"
         sodipodi:nodetypes="ccccccccccc" /></clipPath><clipPath
       clipPathUnits="userSpaceOnUse"
       id="clipPath6435"><path
         style="fill:#008500;fill-opacity:0.410596;stroke:none;stroke-width:1px;stroke-linecap:butt;stroke-linejoin:miter;stroke-opacity:1"
         d="m -377.01267,34.048181 c 14.49064,14.001072 19.10054,37.882873 23.40813,62.066995 15.2634,59.453444 37.15509,112.278584 57.81097,166.339544 0,0 55.68296,-191.166342 51.42694,-194.358359 -4.25602,-3.192017 -134.41938,-48.589591 -134.41938,-48.589591 z"
         id="path6437"
         sodipodi:nodetypes="cccscc" /></clipPath><clipPath
       clipPathUnits="userSpaceOnUse"
       id="clipPath6557"><path
         style="fill:#563726;fill-opacity:0.298013;stroke:none;stroke-width:1px;stroke-linecap:butt;stroke-linejoin:miter;stroke-opacity:1"
         d="m -957.76137,51.261693 c 13.5183,32.09149 37.01351,61.189917 77.24282,85.268107 35.10085,17.76058 59.12035,84.86231 93.29334,101.31857 28.21174,-4.6107 47.57861,-46.3595 65.20502,-77.24287 33.89193,-30.23849 83.81061,-57.7061 105.33118,-108.340657 -42.95427,-44.1070299 -77.02012,-99.76901 -93.29333,-178.561423 l -61.1924,-344.08187 c -5.61223,-24.46443 -14.85062,-32.73041 -22.0694,-21.06624 -24.74447,146.8114 -49.48893,254.13238 -74.2334,381.19857 -16.08273,59.225122 -39.68788,115.5570131 -90.28383,161.507813 z"
         id="path6559"
         sodipodi:nodetypes="cccccccccc" /></clipPath></defs><title
     id="title11">personalization</title><metadata
     id="metadata6590"><rdf:RDF><cc:Work
         rdf:about=""><dc:title>personalization</dc:title></cc:Work></rdf:RDF></metadata><g
     id="g7904"
     transform="translate(923.9303,-62.820574)"><path
       style="fill:#3f1737;fill-opacity:1;stroke:none;stroke-width:1px;stroke-linecap:butt;stroke-linejoin:miter;stroke-opacity:1"
       d="m -462.45406,504.08495 5.51735,-10.53311 234.73807,-24.0757 2.50788,6.5205 c -13.63821,15.31632 -28.94813,36.06566 -53.16717,85.76968 -12.75507,28.97641 -89.11358,25.07873 -121.38165,-16.05047 -23.02386,-29.95927 -44.33023,-37.68674 -68.21448,-41.6309 z"
       id="path982"
       sodipodi:nodetypes="ccccccc" /><path
       style="fill:#502247;fill-opacity:1;stroke:none;stroke-width:1px;stroke-linecap:butt;stroke-linejoin:miter;stroke-opacity:1"
       d="m -374.52999,31.920169 c -5.00028,2.20939 -5.86655,6.781072 -4.25602,12.768068 3.97613,106.372933 0.0555,220.946353 -30.50149,363.180593 -14.58269,3.30326 -33.30867,49.42059 -51.78161,92.92316 30.74818,1.48046 58.97246,7.19375 77.31774,39.72288 12.01001,21.14805 67.33099,32.52517 89.37648,14.89607 17.17489,-15.86308 15.53864,-46.77508 20.57077,-72.35238 3.46082,-13.66776 4.53811,11.04968 16.31476,23.40812 9.06365,10.96368 26.59358,-17.28645 37.59486,-30.50149 -5.60737,-28.14142 -20.43942,-51.36301 -46.10691,-68.8057 C -288.152,277.40451 -354.50816,40.142305 -374.52999,31.920169 Z"
       id="path330"
       sodipodi:nodetypes="ccccccccccc" /><path
       style="fill:#401836;fill-opacity:1;stroke:none;stroke-width:1px;stroke-linecap:butt;stroke-linejoin:miter;stroke-opacity:1"
       d="m -401.48479,334.80711 c 24.70535,-31.01913 16.41835,-50.29088 50.36293,-123.42466 -4.24824,-53.17559 -12.61278,-103.77849 -31.92017,-147.542112 z"
       id="path1038"
       sodipodi:nodetypes="cccc"
       clip-path="url(#clipPath4404)" /><path
       style="fill:#451c3e;fill-opacity:1;stroke:none;stroke-width:1px;stroke-linecap:butt;stroke-linejoin:miter;stroke-opacity:1"
       d="m -380.20468,40.432214 16.31475,36.885529 c 5.68338,75.046127 21.35108,148.095397 36.17619,221.313177 3.67681,19.08704 4.96536,176.62493 12.76807,261.74538 l 20.57077,30.5015 75.18974,-85.82979 -8.51205,-164.56621 -136.19272,-322.039036 z"
       id="path1084"
       sodipodi:nodetypes="ccccccccc"
       clip-path="url(#clipPath5650)" /><g
       id="g1987"
       style="fill:#000200;fill-opacity:1"><path
         style="fill:#000200;fill-opacity:1;stroke:none;stroke-width:1px;stroke-linecap:butt;stroke-linejoin:miter;stroke-opacity:1"
         d="m -344.02849,331.26042 c -9.8094,-13.93171 -16.64154,-9.99984 -22.69879,-1.41867 10.01374,9.32148 15.43306,2.03231 22.69879,1.41867 z"
         id="path1040"
         sodipodi:nodetypes="ccc" /><path
         style="fill:#000200;fill-opacity:1;stroke:none;stroke-width:1px;stroke-linecap:butt;stroke-linejoin:miter;stroke-opacity:1"
         d="m -319.06693,330.22278 c 9.8094,-13.93171 16.64154,-9.99984 22.69879,-1.41867 -10.01374,9.32148 -15.43306,2.03231 -22.69879,1.41867 z"
         id="path1040-8"
         sodipodi:nodetypes="ccc" /></g><path
       style="fill:#87387e;fill-opacity:1;stroke:none;stroke-width:1px;stroke-linecap:butt;stroke-linejoin:miter;stroke-opacity:1"
       d="m -374.39438,31.980189 c -5.00028,2.20939 -6.08822,6.293401 -4.47769,12.280401 3.97613,106.37294 0.0555,220.94636 -30.50149,363.1806 -14.58269,3.30326 -33.30867,49.42059 -51.78161,92.92316 30.74818,1.48046 58.97246,7.19375 77.31774,39.72288 12.01001,21.14805 67.33099,32.52517 89.37648,14.89607 17.17489,-15.86308 15.53864,-46.77508 20.57077,-72.35238 3.46082,-13.66776 4.53811,11.04968 16.31476,23.40812 9.06365,10.96368 26.59358,-17.28645 37.59486,-30.50149 -5.60737,-28.14142 -20.43942,-51.36301 -46.10691,-68.8057 C -288.23806,276.97687 -354.37255,40.202319 -374.39438,31.980189 Z"
       id="path330-9"
       sodipodi:nodetypes="ccccccccccc"
       clip-path="url(#clipPath6435)" /></g><g
     id="g7125"
     transform="matrix(0.725771,0,0,0.725771,695.29747,360.53616)"><path
       style="fill:#563786;fill-opacity:1;stroke:none;stroke-width:1px;stroke-linecap:butt;stroke-linejoin:miter;stroke-opacity:1"
       d="m -958.0122,51.160861 c 13.51833,32.091485 37.01355,61.189909 77.24286,85.268099 35.10085,17.76058 59.12035,84.86231 93.29334,101.31857 28.21174,-4.6107 47.57861,-46.3595 65.20502,-77.24287 33.89193,-30.23849 83.81061,-57.70609 105.33118,-108.340645 -42.95427,-44.1070372 -77.02012,-99.76902 -93.29333,-178.561435 l -61.1924,-344.08187 c -5.61223,-24.46443 -14.85062,-32.73041 -22.0694,-21.06624 -24.74447,146.8114 -49.48893,254.13238 -74.2334,381.19857 -16.08273,59.225129 -39.68788,115.5570201 -90.28387,161.507821 z"
       id="path1753"
       sodipodi:nodetypes="cccccccccc" /><g
       id="g5291"
       style="fill:#9177b6;fill-opacity:1"><path
         style="fill:#9177b6;fill-opacity:1;stroke:none;stroke-width:1px;stroke-linecap:butt;stroke-linejoin:miter;stroke-opacity:1"
         d="m -860.70625,-75.236561 33.10408,-158.498349 c 15.09683,-68.83373 22.76744,-145.09369 34.10724,-217.68445 0.76451,-9.72966 3.94326,-12.21662 7.33811,-14.05527 3.64952,0.28933 -15.09081,106.50894 -17.36965,181.58201 -6.96072,48.58242 -13.85547,58.92177 -19.05993,85.2681 -11.80827,43.07574 -23.11193,110.484536 -38.11985,123.387959 z"
         id="path1755"
         sodipodi:nodetypes="ccccccc" /><g
         id="g4317"
         style="fill:#9177b6;fill-opacity:1"><g
           id="g2513"
           style="fill:#9177b6;fill-opacity:1"><path
             style="fill:#9177b6;fill-opacity:1;stroke:none;stroke-width:1px;stroke-linecap:butt;stroke-linejoin:miter;stroke-opacity:1"
             d="m -854.68733,36.113549 c 29.53838,32.783739 64.21589,42.68206 122.88638,7.523656 -51.83332,10.651983 -96.35946,12.458427 -122.88638,-7.523656 z"
             id="path373"
             sodipodi:nodetypes="ccc" /><path
             style="fill:#9177b6;fill-opacity:1;stroke:none;stroke-width:1px;stroke-linecap:butt;stroke-linejoin:miter;stroke-opacity:1"
             d="m -800.01543,149.46997 c 25.24318,0.99209 60.83881,-21.8432 79.24918,-52.164018 -13.12615,7.259178 -28.53769,19.282438 -42.80603,31.474028 -16.98704,14.51458 -39.91036,19.45774 -36.44315,20.68999 z"
             id="path1025"
             sodipodi:nodetypes="ccsc" /></g><path
           style="fill:#9177b6;fill-opacity:1;stroke:none;stroke-width:1px;stroke-linecap:butt;stroke-linejoin:miter;stroke-opacity:1"
           d="m -943.96805,50.157707 c -3.1314,4.863914 32.10093,38.119855 48.1514,57.179783 12.23108,12.54445 29.33675,19.74373 49.15455,41.6309 l 36.11355,35.61197 c 11.19199,5.92048 31.31331,12.19395 27.08517,8.02524 -11.20499,-6.67841 -25.70852,-12.99114 -33.60567,-20.06309 -14.96419,-19.05993 -32.70328,-38.11985 -55.67505,-57.17978 -36.55428,-47.149269 -28.52528,-102.71847 -35.1104,-100.315418 -12.03785,11.703465 -33.63041,30.914086 -36.11355,35.110395 z"
           id="path2515"
           sodipodi:nodetypes="ccccccccc" /></g></g><path
       style="fill:#3a2a62;fill-opacity:1;stroke:none;stroke-width:1px;stroke-linecap:butt;stroke-linejoin:miter;stroke-opacity:1"
       d="m -858.29789,157.47284 c 26.304,17.68397 49.09643,48.9753 80.1551,48.23492 12.70574,-0.39044 13.75867,-21.41691 30.38974,-53.60257 6.14713,-11.89638 67.07113,-53.468984 53.31203,-69.11275 -10.96565,-13.285641 -47.74658,12.858988 -69.51503,19.86144 -21.76845,7.00245 -58.43614,10.51274 -59.58432,7.80271 -0.5069,-3.03785 88.21116,-35.156064 115.62195,-79.445758 -54.71352,16.213305 -87.43573,14.298638 -105.85878,0.596828 -3.52287,-2.620068 -12.7926,-9.683755 -9.05383,-9.108873 52.15935,8.527263 67.49949,4.062512 65.96835,-24.8267983 -1.48315,-27.9837487 -18.35835,-40.6934707 -32.89451,-56.0191617 -1.11017,-1.17047 -2.76816,-2.530633 -2.74968,-4.185824 0.0181,-1.616214 4.95942,-6.625793 8.32737,-9.458681 24.09523,-20.267262 26.24525,-48.844922 25.18881,-69.366402 l -23.40813,-359.63391 227.69721,378.78601 -39.72288,258.90804 -205.70775,139.03007 z"
       id="path2517"
       sodipodi:nodetypes="ccscsccscsssscccccc"
       clip-path="url(#clipPath6557)" /><g
       id="g1783"
       style="fill:#23163b;fill-opacity:1"><path
         style="fill:#23163b;fill-opacity:1;stroke:none;stroke-width:1px;stroke-linecap:butt;stroke-linejoin:miter;stroke-opacity:1"
         d="m -849.16998,-84.264948 c 7.83751,29.169154 26.21338,24.017648 40.62774,9.028387 -9.41542,-7.726222 -21.87606,-11.972181 -40.62774,-9.028387 z"
         id="path1757"
         sodipodi:nodetypes="ccc" /><path
         style="fill:#23163b;fill-opacity:1;stroke:none;stroke-width:1px;stroke-linecap:butt;stroke-linejoin:miter;stroke-opacity:1"
         d="m -727.53754,-84.316973 c -7.83751,29.169154 -26.21338,24.017648 -40.62774,9.028387 9.41542,-7.726222 21.87606,-11.972181 40.62774,-9.028387 z"
         id="path1757-3"
         sodipodi:nodetypes="ccc" /></g></g></svg>
